Coordinates
version=1
nRows=43
nColumns=12
inDegrees=yes

Units are S.I. units (second, meters, Newtons, ...)
Angles are in degrees

endheader
time	SC_y	SC_z	SC_x	AC_y	AC_z	AC_x	GH_y	GH_z	GH_yy	EL_x	PS_y
       0.0              -20.43          5.679          63.72           64.4         -9.406         -10.26          40.77          88.89         -86.39          34.46          57.58
   0.01011              -20.43           5.68          63.72          64.39         -9.404         -10.26          40.79          88.88         -86.38          34.47          57.58
   0.02021              -20.43          5.681          63.71          64.39         -9.403         -10.26          40.81          88.86         -86.37          34.48          57.59
   0.03032              -20.43          5.682           63.7          64.38         -9.401         -10.25          40.83          88.85         -86.37           34.5          57.59
   0.04043              -20.43          5.683          63.69          64.38         -9.399         -10.25          40.85          88.83         -86.36          34.51          57.59
   0.05053              -20.43          5.684          63.68          64.37         -9.398         -10.25          40.87          88.81         -86.35          34.53           57.6
   0.06064              -20.43          5.685          63.67          64.37         -9.396         -10.25          40.89          88.79         -86.34          34.54           57.6
   0.07075              -20.43          5.686          63.66          64.36         -9.393         -10.25          40.92          88.77         -86.32          34.56          57.61
   0.08085              -20.44          5.687          63.65          64.35         -9.391         -10.25          40.94          88.75         -86.31          34.58          57.61
   0.09096              -20.44          5.688          63.63          64.35         -9.389         -10.25          40.97          88.72          -86.3           34.6          57.62
    0.1011              -20.44           5.69          63.62          64.34         -9.386         -10.24           41.0          88.69         -86.29          34.62          57.62
    0.1112              -20.44          5.691           63.6          64.33         -9.383         -10.24          41.04          88.67         -86.27          34.65          57.63
    0.1213              -20.44          5.693          63.59          64.32          -9.38         -10.24          41.07          88.64         -86.25          34.67          57.63
    0.1314              -20.45          5.695          63.57          64.31         -9.377         -10.24          41.11           88.6         -86.24           34.7          57.64
    0.1415              -20.45          5.697          63.55           64.3         -9.373         -10.24          41.15          88.57         -86.22          34.73          57.65
    0.1516              -20.45          5.699          63.53          64.29         -9.369         -10.23           41.2          88.53          -86.2          34.76          57.66
    0.1617              -20.45          5.701          63.51          64.28         -9.365         -10.23          41.25          88.49         -86.18           34.8          57.67
    0.1718              -20.46          5.703          63.49          64.27         -9.361         -10.23           41.3          88.44         -86.15          34.84          57.67
    0.1819              -20.46          5.706          63.46          64.25         -9.356         -10.22          41.36          88.39         -86.13          34.88          57.68
     0.192              -20.46          5.709          63.43          64.24          -9.35         -10.22          41.42          88.33          -86.1          34.93           57.7
    0.2021              -20.47          5.712           63.4          64.22         -9.344         -10.22          41.49          88.27         -86.06          34.98          57.71
    0.2122              -20.47          5.716          63.36           64.2         -9.338         -10.21          41.57          88.21         -86.03          35.03          57.72
    0.2224              -20.48           5.72          63.32          64.18          -9.33         -10.21          41.66          88.13         -85.99          35.09          57.74
    0.2325              -20.48          5.724          63.28          64.16         -9.322          -10.2          41.75          88.05         -85.95          35.16          57.75
    0.2426              -20.49          5.729          63.23          64.13         -9.313         -10.19          41.86          87.96          -85.9          35.24          57.77
    0.2527              -20.49          5.734          63.18           64.1         -9.303         -10.19          41.97          87.86         -85.85          35.32          57.79
    0.2628               -20.5           5.74          63.12          64.07         -9.292         -10.18          42.11          87.75         -85.79          35.42          57.82
    0.2729              -20.51          5.747          63.06          64.03         -9.279         -10.17          42.25          87.62         -85.72          35.53          57.84
     0.283              -20.52          5.754          62.98          63.99         -9.265         -10.16          42.42          87.48         -85.65          35.65          57.87
    0.2931              -20.53          5.763          62.89          63.95         -9.249         -10.15          42.61          87.31         -85.56          35.78           57.9
    0.3032              -20.54          5.773           62.8          63.89          -9.23         -10.14          42.83          87.13         -85.46          35.94          57.94
    0.3133              -20.56          5.784          62.68          63.83         -9.209         -10.12          43.08          86.91         -85.35          36.12          57.99
    0.3234              -20.57          5.798          62.55          63.76         -9.184         -10.11          43.36          86.67         -85.22          36.33          58.04
    0.3335              -20.59          5.813           62.4          63.68         -9.156         -10.09           43.7          86.38         -85.07          36.57          58.09
    0.3436              -20.62          5.831          62.23          63.58         -9.122         -10.06          44.09          86.04          -84.9          36.85          58.16
    0.3537              -20.64          5.852          62.02          63.47         -9.083         -10.04          44.55          85.65         -84.69          37.18          58.24
    0.3638              -20.67          5.877          61.77          63.34         -9.036          -10.0           45.1          85.18         -84.44          37.58          58.34
     0.374              -20.71          5.907          61.48          63.18          -8.98         -9.965          45.75          84.61         -84.15          38.05          58.45
    0.3841              -20.76          5.943          61.12          62.98         -8.912         -9.918          46.55          83.93         -83.79          38.63          58.59
    0.3942              -20.81          5.987          60.68          62.74          -8.83         -9.861          47.52           83.1         -83.35          39.33          58.76
    0.4043              -20.88          6.042          60.14          62.45         -8.727          -9.79          48.71          82.07         -82.81          40.19          58.97
    0.4144              -20.97           6.11          59.46          62.09           -8.6         -9.703          50.21          80.79         -82.14          41.27          59.23
    0.4245              -21.07          6.196          58.62          61.63         -8.439         -9.592          52.09          79.17         -81.29          42.62          59.56
